<svg width="120" height="64" viewBox="0 0 120 64" fill="none" xmlns="http://www.w3.org/2000/svg">
<path d="M1.235 27.744H4.251C6.383 27.744 7.371 28.693 7.371 30.097C7.371 31.137 6.838 31.891 5.837 32.255V32.281C6.942 32.541 7.579 33.321 7.579 34.452C7.579 35.999 6.448 37 4.498 37H1.235V27.744ZM2.431 28.758V31.787H4.16C5.616 31.787 6.188 31.202 6.188 30.266C6.188 29.291 5.603 28.758 4.212 28.758H2.431ZM2.431 32.788V35.986H4.329C5.694 35.986 6.344 35.427 6.344 34.387C6.344 33.386 5.707 32.788 4.16 32.788H2.431ZM10.3084 32.84H11.9204C13.5584 32.84 14.4554 33.62 14.4554 34.92C14.4554 36.233 13.5584 37 11.9204 37H9.16439V30.396H10.3084V32.84ZM16.6004 37H15.4564V30.396H16.6004V37ZM10.3084 33.724V36.116H11.8554C12.8174 36.116 13.2984 35.726 13.2984 34.92C13.2984 34.114 12.8174 33.724 11.8554 33.724H10.3084ZM22.8344 27.744H23.6794C23.5884 28.914 22.8604 29.603 21.6644 29.603C20.4554 29.603 19.7274 28.914 19.6364 27.744H20.4944C20.5724 28.42 21.0014 28.797 21.6644 28.797C22.3144 28.797 22.7434 28.42 22.8344 27.744ZM24.6804 37H23.5104V34.452C23.5104 33.464 23.5234 32.476 23.5494 31.488H23.5234C23.0424 32.398 22.5224 33.308 21.9894 34.231L20.3644 37H18.6224V30.396H19.7924V32.944C19.7924 33.932 19.7794 34.92 19.7534 35.908H19.7794C20.2474 34.998 20.7674 34.088 21.3134 33.165L22.9384 30.396H24.6804V37ZM31.3023 31.306H29.0533V37H27.8833V31.306H25.6213V30.396L31.3023 30.409V31.306ZM38.3025 37H37.1325V34.452C37.1325 33.464 37.1455 32.476 37.1715 31.488H37.1455C36.6645 32.398 36.1445 33.308 35.6115 34.231L33.9865 37H32.2445V30.396H33.4145V32.944C33.4145 33.932 33.4015 34.92 33.3755 35.908H33.4015C33.8695 34.998 34.3895 34.088 34.9355 33.165L36.5605 30.396H38.3025V37Z" fill="black" fill-opacity="0.54"/>
<mask id="mask0_29_248" style="mask-type:alpha" maskUnits="userSpaceOnUse" x="49" y="22" width="20" height="20">
<path d="M63 39C61.8954 39 61 39.8954 61 41L61 42L67 42C68.1046 42 69 41.1046 69 40L69 24C69 22.8954 68.1046 22 67 22L63 22C61.8954 22 61 22.8954 61 24L61 25L66 25L66 39L63 39Z" fill="url(#paint0_linear_29_248)"/>
<path d="M56 25.5V29H49V31C49 33.2091 50.7909 35 53 35H56V38.5L63 32L56 25.5Z" fill="black"/>
</mask>
<g mask="url(#mask0_29_248)">
<path d="M48 20H72V44H48V20Z" fill="black" fill-opacity="0.4"/>
</g>
<g clip-path="url(#clip0_29_248)">
<rect x="88" y="16" width="32" height="32" rx="8" fill="black" fill-opacity="0.4"/>
<mask id="mask1_29_248" style="mask-type:alpha" maskUnits="userSpaceOnUse" x="90" y="18" width="36" height="36">
<path d="M94.5 46.5C94.5 41.5294 98.5294 37.5 103.5 37.5H112.5C117.471 37.5 121.5 41.5294 121.5 46.5V51H94.5V46.5Z" fill="black"/>
<path opacity="0.35" fill-rule="evenodd" clip-rule="evenodd" d="M114.335 22.4287C113.72 23.6057 112.488 24.4091 111.069 24.4091H107.387C105.353 24.4091 103.705 26.0575 103.705 28.0909V33.9117C104.872 34.8755 106.369 35.4546 108.001 35.4546C111.728 35.4546 114.751 32.4325 114.751 28.7046V24.4091C114.751 23.7044 114.602 23.0344 114.335 22.4287Z" fill="black"/>
<path fill-rule="evenodd" clip-rule="evenodd" d="M114.334 22.4287C113.573 20.7038 111.847 19.5 109.841 19.5H101.25V28.7045C101.25 30.8007 102.205 32.6736 103.705 33.9117V28.0909C103.705 26.0575 105.353 24.4091 107.386 24.4091H111.068C112.488 24.4091 113.72 23.6057 114.334 22.4287Z" fill="url(#paint1_linear_29_248)"/>
</mask>
<g mask="url(#mask1_29_248)">
<path d="M90 18H126V54H90V18Z" fill="url(#paint2_linear_29_248)"/>
</g>
</g>
<defs>
<linearGradient id="paint0_linear_29_248" x1="65.5" y1="23.1111" x2="65.5" y2="40.8889" gradientUnits="userSpaceOnUse">
<stop/>
<stop offset="1" stop-opacity="0.75"/>
</linearGradient>
<linearGradient id="paint1_linear_29_248" x1="105.75" y1="19.5" x2="105.75" y2="33.9117" gradientUnits="userSpaceOnUse">
<stop/>
<stop offset="1" stop-opacity="0.5"/>
</linearGradient>
<linearGradient id="paint2_linear_29_248" x1="101.5" y1="29" x2="117" y2="50" gradientUnits="userSpaceOnUse">
<stop stop-color="white"/>
<stop offset="1" stop-color="white" stop-opacity="0"/>
</linearGradient>
<clipPath id="clip0_29_248">
<rect x="88" y="16" width="32" height="32" rx="8" fill="white"/>
</clipPath>
</defs>
</svg>
